<mxfile host="app.diagrams.net" agent="Mozilla/5.0 (Windows NT 10.0; Win64; x64) AppleWebKit/537.36 (KHTML, like Gecko) Chrome/137.0.0.0 Safari/537.36" version="27.1.4">
  <diagram name="Page-1" id="9kNMtN4T_WwNihLPNDE4">
    <mxGraphModel dx="545" dy="1712" grid="1" gridSize="10" guides="1" tooltips="1" connect="1" arrows="1" fold="1" page="1" pageScale="1" pageWidth="850" pageHeight="1100" math="0" shadow="0">
      <root>
        <mxCell id="0" />
        <mxCell id="1" parent="0" />
        <mxCell id="RbLl8908BFiJwKNtAFnd-1" value="Category" style="whiteSpace=wrap;html=1;align=center;" vertex="1" parent="1">
          <mxGeometry x="390" y="470" width="100" height="40" as="geometry" />
        </mxCell>
        <mxCell id="RbLl8908BFiJwKNtAFnd-2" value="Cart" style="whiteSpace=wrap;html=1;align=center;" vertex="1" parent="1">
          <mxGeometry x="390" y="630" width="100" height="40" as="geometry" />
        </mxCell>
        <mxCell id="RbLl8908BFiJwKNtAFnd-3" value="Address" style="whiteSpace=wrap;html=1;align=center;" vertex="1" parent="1">
          <mxGeometry x="390" y="780" width="100" height="40" as="geometry" />
        </mxCell>
        <mxCell id="RbLl8908BFiJwKNtAFnd-4" value="Wishlist" style="whiteSpace=wrap;html=1;align=center;" vertex="1" parent="1">
          <mxGeometry x="560" y="720" width="100" height="40" as="geometry" />
        </mxCell>
        <mxCell id="RbLl8908BFiJwKNtAFnd-5" value="Review" style="whiteSpace=wrap;html=1;align=center;" vertex="1" parent="1">
          <mxGeometry x="825" y="230" width="100" height="40" as="geometry" />
        </mxCell>
        <mxCell id="RbLl8908BFiJwKNtAFnd-6" value="Product" style="whiteSpace=wrap;html=1;align=center;" vertex="1" parent="1">
          <mxGeometry x="810" y="480" width="100" height="40" as="geometry" />
        </mxCell>
        <mxCell id="RbLl8908BFiJwKNtAFnd-7" value="Customer" style="whiteSpace=wrap;html=1;align=center;" vertex="1" parent="1">
          <mxGeometry x="830" y="770" width="100" height="40" as="geometry" />
        </mxCell>
        <mxCell id="RbLl8908BFiJwKNtAFnd-8" value="Membership" style="whiteSpace=wrap;html=1;align=center;" vertex="1" parent="1">
          <mxGeometry x="830" y="1060" width="100" height="30" as="geometry" />
        </mxCell>
        <mxCell id="RbLl8908BFiJwKNtAFnd-9" value="Shipping" style="whiteSpace=wrap;html=1;align=center;" vertex="1" parent="1">
          <mxGeometry x="840" y="1280" width="100" height="40" as="geometry" />
        </mxCell>
        <mxCell id="RbLl8908BFiJwKNtAFnd-10" value="Status" style="ellipse;whiteSpace=wrap;html=1;align=center;" vertex="1" parent="1">
          <mxGeometry x="750" y="1350" width="80" height="30" as="geometry" />
        </mxCell>
        <mxCell id="RbLl8908BFiJwKNtAFnd-12" value="" style="endArrow=none;html=1;rounded=0;entryX=0;entryY=1;entryDx=0;entryDy=0;exitX=0.5;exitY=0;exitDx=0;exitDy=0;" edge="1" parent="1" source="RbLl8908BFiJwKNtAFnd-10" target="RbLl8908BFiJwKNtAFnd-9">
          <mxGeometry relative="1" as="geometry">
            <mxPoint x="730" y="1360" as="sourcePoint" />
            <mxPoint x="890" y="1360" as="targetPoint" />
          </mxGeometry>
        </mxCell>
        <mxCell id="RbLl8908BFiJwKNtAFnd-13" value="tracking_number" style="ellipse;whiteSpace=wrap;html=1;align=center;" vertex="1" parent="1">
          <mxGeometry x="840" y="1350" width="100" height="30" as="geometry" />
        </mxCell>
        <mxCell id="RbLl8908BFiJwKNtAFnd-14" value="" style="endArrow=none;html=1;rounded=0;exitX=0.5;exitY=1;exitDx=0;exitDy=0;entryX=0.5;entryY=0;entryDx=0;entryDy=0;" edge="1" parent="1" source="RbLl8908BFiJwKNtAFnd-9" target="RbLl8908BFiJwKNtAFnd-13">
          <mxGeometry relative="1" as="geometry">
            <mxPoint x="730" y="1360" as="sourcePoint" />
            <mxPoint x="890" y="1360" as="targetPoint" />
          </mxGeometry>
        </mxCell>
        <mxCell id="RbLl8908BFiJwKNtAFnd-17" value="shipping_id" style="ellipse;whiteSpace=wrap;html=1;align=center;fontStyle=4;" vertex="1" parent="1">
          <mxGeometry x="730" y="1200" width="100" height="40" as="geometry" />
        </mxCell>
        <mxCell id="RbLl8908BFiJwKNtAFnd-18" value="" style="endArrow=none;html=1;rounded=0;entryX=0.25;entryY=0;entryDx=0;entryDy=0;exitX=1;exitY=1;exitDx=0;exitDy=0;" edge="1" parent="1" source="RbLl8908BFiJwKNtAFnd-17" target="RbLl8908BFiJwKNtAFnd-9">
          <mxGeometry relative="1" as="geometry">
            <mxPoint x="730" y="1360" as="sourcePoint" />
            <mxPoint x="890" y="1360" as="targetPoint" />
          </mxGeometry>
        </mxCell>
        <mxCell id="RbLl8908BFiJwKNtAFnd-19" value="method" style="ellipse;whiteSpace=wrap;html=1;align=center;" vertex="1" parent="1">
          <mxGeometry x="840" y="1190" width="90" height="40" as="geometry" />
        </mxCell>
        <mxCell id="RbLl8908BFiJwKNtAFnd-20" value="" style="endArrow=none;html=1;rounded=0;exitX=0.556;exitY=1;exitDx=0;exitDy=0;entryX=0.5;entryY=0;entryDx=0;entryDy=0;exitPerimeter=0;" edge="1" parent="1" source="RbLl8908BFiJwKNtAFnd-19" target="RbLl8908BFiJwKNtAFnd-9">
          <mxGeometry relative="1" as="geometry">
            <mxPoint x="730" y="1380" as="sourcePoint" />
            <mxPoint x="890" y="1380" as="targetPoint" />
          </mxGeometry>
        </mxCell>
        <mxCell id="RbLl8908BFiJwKNtAFnd-22" value="cost" style="ellipse;whiteSpace=wrap;html=1;align=center;" vertex="1" parent="1">
          <mxGeometry x="940" y="1190" width="80" height="40" as="geometry" />
        </mxCell>
        <mxCell id="RbLl8908BFiJwKNtAFnd-23" value="" style="endArrow=none;html=1;rounded=0;entryX=0.5;entryY=1;entryDx=0;entryDy=0;exitX=1;exitY=0;exitDx=0;exitDy=0;" edge="1" parent="1" source="RbLl8908BFiJwKNtAFnd-9" target="RbLl8908BFiJwKNtAFnd-22">
          <mxGeometry relative="1" as="geometry">
            <mxPoint x="840" y="1380" as="sourcePoint" />
            <mxPoint x="1000" y="1380" as="targetPoint" />
          </mxGeometry>
        </mxCell>
        <mxCell id="RbLl8908BFiJwKNtAFnd-24" value="join_date" style="ellipse;whiteSpace=wrap;html=1;align=center;" vertex="1" parent="1">
          <mxGeometry x="845" y="1120" width="70" height="40" as="geometry" />
        </mxCell>
        <mxCell id="RbLl8908BFiJwKNtAFnd-25" value="" style="endArrow=none;html=1;rounded=0;exitX=0.5;exitY=1;exitDx=0;exitDy=0;entryX=0.5;entryY=0;entryDx=0;entryDy=0;" edge="1" parent="1" source="RbLl8908BFiJwKNtAFnd-8" target="RbLl8908BFiJwKNtAFnd-24">
          <mxGeometry relative="1" as="geometry">
            <mxPoint x="830" y="1210" as="sourcePoint" />
            <mxPoint x="990" y="1210" as="targetPoint" />
          </mxGeometry>
        </mxCell>
        <mxCell id="RbLl8908BFiJwKNtAFnd-26" value="points" style="ellipse;whiteSpace=wrap;html=1;align=center;" vertex="1" parent="1">
          <mxGeometry x="970" y="1010" width="70" height="40" as="geometry" />
        </mxCell>
        <mxCell id="RbLl8908BFiJwKNtAFnd-27" value="" style="endArrow=none;html=1;rounded=0;exitX=1;exitY=0;exitDx=0;exitDy=0;entryX=0;entryY=0.5;entryDx=0;entryDy=0;" edge="1" parent="1" source="RbLl8908BFiJwKNtAFnd-8" target="RbLl8908BFiJwKNtAFnd-26">
          <mxGeometry relative="1" as="geometry">
            <mxPoint x="830" y="1210" as="sourcePoint" />
            <mxPoint x="990" y="1210" as="targetPoint" />
          </mxGeometry>
        </mxCell>
        <mxCell id="RbLl8908BFiJwKNtAFnd-28" value="level" style="ellipse;whiteSpace=wrap;html=1;align=center;" vertex="1" parent="1">
          <mxGeometry x="915" y="980" width="60" height="30" as="geometry" />
        </mxCell>
        <mxCell id="RbLl8908BFiJwKNtAFnd-29" value="" style="endArrow=none;html=1;rounded=0;exitX=0.5;exitY=1;exitDx=0;exitDy=0;entryX=0.58;entryY=0.117;entryDx=0;entryDy=0;entryPerimeter=0;" edge="1" parent="1" source="RbLl8908BFiJwKNtAFnd-28" target="RbLl8908BFiJwKNtAFnd-8">
          <mxGeometry relative="1" as="geometry">
            <mxPoint x="830" y="1210" as="sourcePoint" />
            <mxPoint x="990" y="1210" as="targetPoint" />
          </mxGeometry>
        </mxCell>
        <mxCell id="RbLl8908BFiJwKNtAFnd-30" value="member_id" style="ellipse;whiteSpace=wrap;html=1;align=center;fontStyle=4;" vertex="1" parent="1">
          <mxGeometry x="740" y="1000" width="100" height="30" as="geometry" />
        </mxCell>
        <mxCell id="RbLl8908BFiJwKNtAFnd-31" value="" style="endArrow=none;html=1;rounded=0;exitX=0.69;exitY=1.017;exitDx=0;exitDy=0;exitPerimeter=0;entryX=0.25;entryY=0;entryDx=0;entryDy=0;" edge="1" parent="1" source="RbLl8908BFiJwKNtAFnd-30" target="RbLl8908BFiJwKNtAFnd-8">
          <mxGeometry relative="1" as="geometry">
            <mxPoint x="830" y="1210" as="sourcePoint" />
            <mxPoint x="990" y="1210" as="targetPoint" />
          </mxGeometry>
        </mxCell>
        <mxCell id="RbLl8908BFiJwKNtAFnd-32" value="customer_id" style="ellipse;whiteSpace=wrap;html=1;align=center;fontStyle=4;" vertex="1" parent="1">
          <mxGeometry x="730" y="710" width="100" height="40" as="geometry" />
        </mxCell>
        <mxCell id="RbLl8908BFiJwKNtAFnd-33" value="" style="endArrow=none;html=1;rounded=0;entryX=0;entryY=0;entryDx=0;entryDy=0;exitX=0.41;exitY=0.975;exitDx=0;exitDy=0;exitPerimeter=0;" edge="1" parent="1" source="RbLl8908BFiJwKNtAFnd-32" target="RbLl8908BFiJwKNtAFnd-7">
          <mxGeometry relative="1" as="geometry">
            <mxPoint x="800" y="740" as="sourcePoint" />
            <mxPoint x="940" y="770" as="targetPoint" />
          </mxGeometry>
        </mxCell>
        <mxCell id="RbLl8908BFiJwKNtAFnd-34" value="name" style="ellipse;whiteSpace=wrap;html=1;align=center;" vertex="1" parent="1">
          <mxGeometry x="850" y="700" width="60" height="30" as="geometry" />
        </mxCell>
        <mxCell id="RbLl8908BFiJwKNtAFnd-35" value="" style="endArrow=none;html=1;rounded=0;exitX=0.5;exitY=1;exitDx=0;exitDy=0;entryX=0.5;entryY=0;entryDx=0;entryDy=0;" edge="1" parent="1" source="RbLl8908BFiJwKNtAFnd-34" target="RbLl8908BFiJwKNtAFnd-7">
          <mxGeometry relative="1" as="geometry">
            <mxPoint x="780" y="770" as="sourcePoint" />
            <mxPoint x="940" y="770" as="targetPoint" />
          </mxGeometry>
        </mxCell>
        <mxCell id="RbLl8908BFiJwKNtAFnd-36" value="email" style="ellipse;whiteSpace=wrap;html=1;align=center;" vertex="1" parent="1">
          <mxGeometry x="950" y="715" width="70" height="30" as="geometry" />
        </mxCell>
        <mxCell id="RbLl8908BFiJwKNtAFnd-37" value="" style="endArrow=none;html=1;rounded=0;exitX=0.5;exitY=1;exitDx=0;exitDy=0;entryX=1;entryY=0;entryDx=0;entryDy=0;" edge="1" parent="1" source="RbLl8908BFiJwKNtAFnd-36" target="RbLl8908BFiJwKNtAFnd-7">
          <mxGeometry relative="1" as="geometry">
            <mxPoint x="780" y="770" as="sourcePoint" />
            <mxPoint x="940" y="770" as="targetPoint" />
          </mxGeometry>
        </mxCell>
        <mxCell id="RbLl8908BFiJwKNtAFnd-38" value="register_date" style="ellipse;whiteSpace=wrap;html=1;align=center;" vertex="1" parent="1">
          <mxGeometry x="930" y="840" width="100" height="40" as="geometry" />
        </mxCell>
        <mxCell id="RbLl8908BFiJwKNtAFnd-39" value="" style="endArrow=none;html=1;rounded=0;exitX=0.5;exitY=0;exitDx=0;exitDy=0;entryX=1;entryY=1;entryDx=0;entryDy=0;" edge="1" parent="1" source="RbLl8908BFiJwKNtAFnd-38" target="RbLl8908BFiJwKNtAFnd-7">
          <mxGeometry relative="1" as="geometry">
            <mxPoint x="780" y="770" as="sourcePoint" />
            <mxPoint x="940" y="770" as="targetPoint" />
          </mxGeometry>
        </mxCell>
        <mxCell id="RbLl8908BFiJwKNtAFnd-40" value="phone" style="ellipse;whiteSpace=wrap;html=1;align=center;" vertex="1" parent="1">
          <mxGeometry x="750" y="820" width="70" height="30" as="geometry" />
        </mxCell>
        <mxCell id="RbLl8908BFiJwKNtAFnd-41" value="" style="endArrow=none;html=1;rounded=0;exitX=0.5;exitY=0;exitDx=0;exitDy=0;entryX=0;entryY=1;entryDx=0;entryDy=0;" edge="1" parent="1" source="RbLl8908BFiJwKNtAFnd-40" target="RbLl8908BFiJwKNtAFnd-7">
          <mxGeometry relative="1" as="geometry">
            <mxPoint x="780" y="770" as="sourcePoint" />
            <mxPoint x="940" y="770" as="targetPoint" />
          </mxGeometry>
        </mxCell>
        <mxCell id="RbLl8908BFiJwKNtAFnd-42" value="Has" style="shape=rhombus;perimeter=rhombusPerimeter;whiteSpace=wrap;html=1;align=center;" vertex="1" parent="1">
          <mxGeometry x="850" y="910" width="60" height="40" as="geometry" />
        </mxCell>
        <mxCell id="RbLl8908BFiJwKNtAFnd-44" value="" style="endArrow=none;html=1;rounded=0;exitX=0.5;exitY=1;exitDx=0;exitDy=0;entryX=0.5;entryY=0;entryDx=0;entryDy=0;" edge="1" parent="1" source="RbLl8908BFiJwKNtAFnd-7" target="RbLl8908BFiJwKNtAFnd-42">
          <mxGeometry relative="1" as="geometry">
            <mxPoint x="780" y="970" as="sourcePoint" />
            <mxPoint x="940" y="970" as="targetPoint" />
          </mxGeometry>
        </mxCell>
        <mxCell id="RbLl8908BFiJwKNtAFnd-45" value="" style="endArrow=none;html=1;rounded=0;exitX=0.5;exitY=1;exitDx=0;exitDy=0;entryX=0.5;entryY=0;entryDx=0;entryDy=0;" edge="1" parent="1" source="RbLl8908BFiJwKNtAFnd-42" target="RbLl8908BFiJwKNtAFnd-8">
          <mxGeometry relative="1" as="geometry">
            <mxPoint x="780" y="970" as="sourcePoint" />
            <mxPoint x="940" y="970" as="targetPoint" />
          </mxGeometry>
        </mxCell>
        <mxCell id="RbLl8908BFiJwKNtAFnd-47" value="SKU" style="ellipse;whiteSpace=wrap;html=1;align=center;" vertex="1" parent="1">
          <mxGeometry x="830" y="570" width="50" height="40" as="geometry" />
        </mxCell>
        <mxCell id="RbLl8908BFiJwKNtAFnd-48" value="" style="endArrow=none;html=1;rounded=0;exitX=0.43;exitY=0.938;exitDx=0;exitDy=0;exitPerimeter=0;entryX=0.5;entryY=0;entryDx=0;entryDy=0;" edge="1" parent="1" source="RbLl8908BFiJwKNtAFnd-6" target="RbLl8908BFiJwKNtAFnd-47">
          <mxGeometry relative="1" as="geometry">
            <mxPoint x="780" y="570" as="sourcePoint" />
            <mxPoint x="940" y="570" as="targetPoint" />
          </mxGeometry>
        </mxCell>
        <mxCell id="RbLl8908BFiJwKNtAFnd-49" value="special_price" style="ellipse;whiteSpace=wrap;html=1;align=center;" vertex="1" parent="1">
          <mxGeometry x="745" y="570" width="80" height="40" as="geometry" />
        </mxCell>
        <mxCell id="RbLl8908BFiJwKNtAFnd-50" value="" style="endArrow=none;html=1;rounded=0;exitX=0.5;exitY=0;exitDx=0;exitDy=0;entryX=0.25;entryY=1;entryDx=0;entryDy=0;" edge="1" parent="1" source="RbLl8908BFiJwKNtAFnd-49" target="RbLl8908BFiJwKNtAFnd-6">
          <mxGeometry relative="1" as="geometry">
            <mxPoint x="780" y="570" as="sourcePoint" />
            <mxPoint x="940" y="570" as="targetPoint" />
          </mxGeometry>
        </mxCell>
        <mxCell id="RbLl8908BFiJwKNtAFnd-51" value="image" style="ellipse;whiteSpace=wrap;html=1;align=center;" vertex="1" parent="1">
          <mxGeometry x="890" y="570" width="70" height="40" as="geometry" />
        </mxCell>
        <mxCell id="RbLl8908BFiJwKNtAFnd-52" value="" style="endArrow=none;html=1;rounded=0;exitX=0.75;exitY=1;exitDx=0;exitDy=0;" edge="1" parent="1" source="RbLl8908BFiJwKNtAFnd-6" target="RbLl8908BFiJwKNtAFnd-51">
          <mxGeometry relative="1" as="geometry">
            <mxPoint x="780" y="570" as="sourcePoint" />
            <mxPoint x="940" y="570" as="targetPoint" />
          </mxGeometry>
        </mxCell>
        <mxCell id="RbLl8908BFiJwKNtAFnd-53" value="description" style="ellipse;whiteSpace=wrap;html=1;align=center;" vertex="1" parent="1">
          <mxGeometry x="670" y="500" width="80" height="40" as="geometry" />
        </mxCell>
        <mxCell id="RbLl8908BFiJwKNtAFnd-54" value="" style="endArrow=none;html=1;rounded=0;exitX=1;exitY=0.5;exitDx=0;exitDy=0;entryX=0;entryY=0.5;entryDx=0;entryDy=0;" edge="1" parent="1" source="RbLl8908BFiJwKNtAFnd-53" target="RbLl8908BFiJwKNtAFnd-6">
          <mxGeometry relative="1" as="geometry">
            <mxPoint x="780" y="570" as="sourcePoint" />
            <mxPoint x="940" y="570" as="targetPoint" />
          </mxGeometry>
        </mxCell>
        <mxCell id="RbLl8908BFiJwKNtAFnd-57" value="product_id" style="ellipse;whiteSpace=wrap;html=1;align=center;fontStyle=4;" vertex="1" parent="1">
          <mxGeometry x="710" y="410" width="100" height="40" as="geometry" />
        </mxCell>
        <mxCell id="RbLl8908BFiJwKNtAFnd-58" value="" style="endArrow=none;html=1;rounded=0;entryX=0.25;entryY=0;entryDx=0;entryDy=0;exitX=0.5;exitY=1;exitDx=0;exitDy=0;" edge="1" parent="1" source="RbLl8908BFiJwKNtAFnd-57" target="RbLl8908BFiJwKNtAFnd-6">
          <mxGeometry relative="1" as="geometry">
            <mxPoint x="780" y="570" as="sourcePoint" />
            <mxPoint x="940" y="570" as="targetPoint" />
          </mxGeometry>
        </mxCell>
        <mxCell id="RbLl8908BFiJwKNtAFnd-59" value="price" style="ellipse;whiteSpace=wrap;html=1;align=center;" vertex="1" parent="1">
          <mxGeometry x="890" y="400" width="70" height="40" as="geometry" />
        </mxCell>
        <mxCell id="RbLl8908BFiJwKNtAFnd-60" value="" style="endArrow=none;html=1;rounded=0;exitX=0.75;exitY=0;exitDx=0;exitDy=0;entryX=0.5;entryY=1;entryDx=0;entryDy=0;" edge="1" parent="1" source="RbLl8908BFiJwKNtAFnd-6" target="RbLl8908BFiJwKNtAFnd-59">
          <mxGeometry relative="1" as="geometry">
            <mxPoint x="780" y="570" as="sourcePoint" />
            <mxPoint x="940" y="570" as="targetPoint" />
          </mxGeometry>
        </mxCell>
        <mxCell id="RbLl8908BFiJwKNtAFnd-61" value="review_date" style="ellipse;whiteSpace=wrap;html=1;align=center;" vertex="1" parent="1">
          <mxGeometry x="700" y="235" width="80" height="30" as="geometry" />
        </mxCell>
        <mxCell id="RbLl8908BFiJwKNtAFnd-62" value="" style="endArrow=none;html=1;rounded=0;exitX=1;exitY=0.5;exitDx=0;exitDy=0;entryX=0;entryY=0.5;entryDx=0;entryDy=0;" edge="1" parent="1" source="RbLl8908BFiJwKNtAFnd-61" target="RbLl8908BFiJwKNtAFnd-5">
          <mxGeometry relative="1" as="geometry">
            <mxPoint x="780" y="270" as="sourcePoint" />
            <mxPoint x="940" y="270" as="targetPoint" />
          </mxGeometry>
        </mxCell>
        <mxCell id="RbLl8908BFiJwKNtAFnd-63" value="rating" style="ellipse;whiteSpace=wrap;html=1;align=center;" vertex="1" parent="1">
          <mxGeometry x="855" y="130" width="60" height="30" as="geometry" />
        </mxCell>
        <mxCell id="RbLl8908BFiJwKNtAFnd-64" value="" style="endArrow=none;html=1;rounded=0;exitX=0.5;exitY=1;exitDx=0;exitDy=0;entryX=0.605;entryY=-0.062;entryDx=0;entryDy=0;entryPerimeter=0;" edge="1" parent="1" source="RbLl8908BFiJwKNtAFnd-63" target="RbLl8908BFiJwKNtAFnd-5">
          <mxGeometry relative="1" as="geometry">
            <mxPoint x="780" y="270" as="sourcePoint" />
            <mxPoint x="940" y="270" as="targetPoint" />
          </mxGeometry>
        </mxCell>
        <mxCell id="RbLl8908BFiJwKNtAFnd-65" value="comment" style="ellipse;whiteSpace=wrap;html=1;align=center;" vertex="1" parent="1">
          <mxGeometry x="930" y="130" width="70" height="30" as="geometry" />
        </mxCell>
        <mxCell id="RbLl8908BFiJwKNtAFnd-67" value="" style="endArrow=none;html=1;rounded=0;exitX=0.5;exitY=1;exitDx=0;exitDy=0;entryX=0.75;entryY=0;entryDx=0;entryDy=0;" edge="1" parent="1" source="RbLl8908BFiJwKNtAFnd-65" target="RbLl8908BFiJwKNtAFnd-5">
          <mxGeometry relative="1" as="geometry">
            <mxPoint x="780" y="270" as="sourcePoint" />
            <mxPoint x="940" y="270" as="targetPoint" />
          </mxGeometry>
        </mxCell>
        <mxCell id="RbLl8908BFiJwKNtAFnd-68" value="review_id" style="ellipse;whiteSpace=wrap;html=1;align=center;fontStyle=4;" vertex="1" parent="1">
          <mxGeometry x="770" y="140" width="65" height="40" as="geometry" />
        </mxCell>
        <mxCell id="RbLl8908BFiJwKNtAFnd-69" value="" style="endArrow=none;html=1;rounded=0;exitX=0.5;exitY=1;exitDx=0;exitDy=0;entryX=0.25;entryY=0;entryDx=0;entryDy=0;" edge="1" parent="1" source="RbLl8908BFiJwKNtAFnd-68" target="RbLl8908BFiJwKNtAFnd-5">
          <mxGeometry relative="1" as="geometry">
            <mxPoint x="780" y="270" as="sourcePoint" />
            <mxPoint x="940" y="270" as="targetPoint" />
          </mxGeometry>
        </mxCell>
        <mxCell id="RbLl8908BFiJwKNtAFnd-72" value="is_verified" style="ellipse;whiteSpace=wrap;html=1;align=center;" vertex="1" parent="1">
          <mxGeometry x="980" y="230" width="100" height="40" as="geometry" />
        </mxCell>
        <mxCell id="RbLl8908BFiJwKNtAFnd-73" value="" style="endArrow=none;html=1;rounded=0;exitX=1;exitY=0.5;exitDx=0;exitDy=0;entryX=0;entryY=0.5;entryDx=0;entryDy=0;" edge="1" parent="1" source="RbLl8908BFiJwKNtAFnd-5" target="RbLl8908BFiJwKNtAFnd-72">
          <mxGeometry relative="1" as="geometry">
            <mxPoint x="780" y="270" as="sourcePoint" />
            <mxPoint x="940" y="270" as="targetPoint" />
          </mxGeometry>
        </mxCell>
        <mxCell id="RbLl8908BFiJwKNtAFnd-75" value="stock_qty" style="ellipse;whiteSpace=wrap;html=1;align=center;" vertex="1" parent="1">
          <mxGeometry x="970" y="490" width="80" height="40" as="geometry" />
        </mxCell>
        <mxCell id="RbLl8908BFiJwKNtAFnd-76" value="" style="endArrow=none;html=1;rounded=0;exitX=1;exitY=0.5;exitDx=0;exitDy=0;entryX=0;entryY=0.5;entryDx=0;entryDy=0;" edge="1" parent="1" source="RbLl8908BFiJwKNtAFnd-6" target="RbLl8908BFiJwKNtAFnd-75">
          <mxGeometry relative="1" as="geometry">
            <mxPoint x="780" y="470" as="sourcePoint" />
            <mxPoint x="940" y="470" as="targetPoint" />
          </mxGeometry>
        </mxCell>
        <mxCell id="RbLl8908BFiJwKNtAFnd-77" value="Reviews" style="shape=rhombus;perimeter=rhombusPerimeter;whiteSpace=wrap;html=1;align=center;" vertex="1" parent="1">
          <mxGeometry x="820" y="320" width="100" height="60" as="geometry" />
        </mxCell>
        <mxCell id="RbLl8908BFiJwKNtAFnd-79" value="" style="endArrow=none;html=1;rounded=0;exitX=0.5;exitY=1;exitDx=0;exitDy=0;entryX=0.5;entryY=0;entryDx=0;entryDy=0;" edge="1" parent="1" source="RbLl8908BFiJwKNtAFnd-5" target="RbLl8908BFiJwKNtAFnd-77">
          <mxGeometry relative="1" as="geometry">
            <mxPoint x="780" y="470" as="sourcePoint" />
            <mxPoint x="940" y="470" as="targetPoint" />
          </mxGeometry>
        </mxCell>
        <mxCell id="RbLl8908BFiJwKNtAFnd-80" value="" style="endArrow=none;html=1;rounded=0;exitX=0.5;exitY=1;exitDx=0;exitDy=0;entryX=0.5;entryY=0;entryDx=0;entryDy=0;" edge="1" parent="1" source="RbLl8908BFiJwKNtAFnd-77" target="RbLl8908BFiJwKNtAFnd-6">
          <mxGeometry relative="1" as="geometry">
            <mxPoint x="780" y="470" as="sourcePoint" />
            <mxPoint x="940" y="470" as="targetPoint" />
          </mxGeometry>
        </mxCell>
        <mxCell id="RbLl8908BFiJwKNtAFnd-82" value="Inventory" style="shape=ext;margin=3;double=1;whiteSpace=wrap;html=1;align=center;" vertex="1" parent="1">
          <mxGeometry x="1270" y="60" width="100" height="40" as="geometry" />
        </mxCell>
        <mxCell id="RbLl8908BFiJwKNtAFnd-83" value="quality" style="ellipse;whiteSpace=wrap;html=1;align=center;" vertex="1" parent="1">
          <mxGeometry x="1225" y="-20" width="100" height="30" as="geometry" />
        </mxCell>
        <mxCell id="RbLl8908BFiJwKNtAFnd-85" value="Track" style="shape=rhombus;perimeter=rhombusPerimeter;whiteSpace=wrap;html=1;align=center;" vertex="1" parent="1">
          <mxGeometry x="1100" y="280" width="70" height="60" as="geometry" />
        </mxCell>
        <mxCell id="RbLl8908BFiJwKNtAFnd-86" value="" style="endArrow=none;html=1;rounded=0;entryX=0;entryY=1;entryDx=0;entryDy=0;exitX=1;exitY=0;exitDx=0;exitDy=0;" edge="1" parent="1" source="RbLl8908BFiJwKNtAFnd-85" target="RbLl8908BFiJwKNtAFnd-82">
          <mxGeometry relative="1" as="geometry">
            <mxPoint x="1060" y="270" as="sourcePoint" />
            <mxPoint x="1220" y="270" as="targetPoint" />
          </mxGeometry>
        </mxCell>
        <mxCell id="RbLl8908BFiJwKNtAFnd-87" value="" style="endArrow=none;html=1;rounded=0;entryX=0;entryY=1;entryDx=0;entryDy=0;exitX=1;exitY=0;exitDx=0;exitDy=0;" edge="1" parent="1" source="RbLl8908BFiJwKNtAFnd-6" target="RbLl8908BFiJwKNtAFnd-85">
          <mxGeometry relative="1" as="geometry">
            <mxPoint x="920" y="270" as="sourcePoint" />
            <mxPoint x="1080" y="270" as="targetPoint" />
          </mxGeometry>
        </mxCell>
        <mxCell id="RbLl8908BFiJwKNtAFnd-88" value="" style="endArrow=none;html=1;rounded=0;exitX=0.685;exitY=1.05;exitDx=0;exitDy=0;exitPerimeter=0;entryX=0.25;entryY=0;entryDx=0;entryDy=0;" edge="1" parent="1" source="RbLl8908BFiJwKNtAFnd-83" target="RbLl8908BFiJwKNtAFnd-82">
          <mxGeometry relative="1" as="geometry">
            <mxPoint x="1280" y="170" as="sourcePoint" />
            <mxPoint x="1440" y="170" as="targetPoint" />
          </mxGeometry>
        </mxCell>
        <mxCell id="RbLl8908BFiJwKNtAFnd-89" value="last_update" style="ellipse;whiteSpace=wrap;html=1;align=center;" vertex="1" parent="1">
          <mxGeometry x="1430" y="60" width="90" height="40" as="geometry" />
        </mxCell>
        <mxCell id="RbLl8908BFiJwKNtAFnd-90" value="" style="endArrow=none;html=1;rounded=0;exitX=1;exitY=0.5;exitDx=0;exitDy=0;entryX=0;entryY=0.5;entryDx=0;entryDy=0;" edge="1" parent="1" source="RbLl8908BFiJwKNtAFnd-82" target="RbLl8908BFiJwKNtAFnd-89">
          <mxGeometry relative="1" as="geometry">
            <mxPoint x="1280" y="170" as="sourcePoint" />
            <mxPoint x="1440" y="170" as="targetPoint" />
          </mxGeometry>
        </mxCell>
        <mxCell id="RbLl8908BFiJwKNtAFnd-91" value="Brand" style="whiteSpace=wrap;html=1;align=center;" vertex="1" parent="1">
          <mxGeometry x="1660" y="125" width="100" height="40" as="geometry" />
        </mxCell>
        <mxCell id="RbLl8908BFiJwKNtAFnd-92" value="logo" style="ellipse;whiteSpace=wrap;html=1;align=center;" vertex="1" parent="1">
          <mxGeometry x="1770" y="35" width="70" height="40" as="geometry" />
        </mxCell>
        <mxCell id="RbLl8908BFiJwKNtAFnd-93" value="" style="endArrow=none;html=1;rounded=0;entryX=0;entryY=1;entryDx=0;entryDy=0;" edge="1" parent="1" target="RbLl8908BFiJwKNtAFnd-92">
          <mxGeometry relative="1" as="geometry">
            <mxPoint x="1760" y="125" as="sourcePoint" />
            <mxPoint x="1820" y="195" as="targetPoint" />
          </mxGeometry>
        </mxCell>
        <mxCell id="RbLl8908BFiJwKNtAFnd-94" value="name" style="ellipse;whiteSpace=wrap;html=1;align=center;" vertex="1" parent="1">
          <mxGeometry x="1670" width="80" height="40" as="geometry" />
        </mxCell>
        <mxCell id="RbLl8908BFiJwKNtAFnd-95" value="" style="endArrow=none;html=1;rounded=0;exitX=0.5;exitY=1;exitDx=0;exitDy=0;entryX=0.5;entryY=0;entryDx=0;entryDy=0;" edge="1" parent="1" source="RbLl8908BFiJwKNtAFnd-94" target="RbLl8908BFiJwKNtAFnd-91">
          <mxGeometry relative="1" as="geometry">
            <mxPoint x="1660" y="195" as="sourcePoint" />
            <mxPoint x="1820" y="195" as="targetPoint" />
          </mxGeometry>
        </mxCell>
        <mxCell id="RbLl8908BFiJwKNtAFnd-96" value="brand_id" style="ellipse;whiteSpace=wrap;html=1;align=center;fontStyle=4;" vertex="1" parent="1">
          <mxGeometry x="1590" y="45" width="70" height="40" as="geometry" />
        </mxCell>
        <mxCell id="RbLl8908BFiJwKNtAFnd-97" value="" style="endArrow=none;html=1;rounded=0;exitX=0.5;exitY=1;exitDx=0;exitDy=0;entryX=0.25;entryY=0;entryDx=0;entryDy=0;" edge="1" parent="1" source="RbLl8908BFiJwKNtAFnd-96" target="RbLl8908BFiJwKNtAFnd-91">
          <mxGeometry relative="1" as="geometry">
            <mxPoint x="1660" y="195" as="sourcePoint" />
            <mxPoint x="1820" y="195" as="targetPoint" />
          </mxGeometry>
        </mxCell>
        <mxCell id="RbLl8908BFiJwKNtAFnd-98" value="Order_item" style="shape=ext;margin=3;double=1;whiteSpace=wrap;html=1;align=center;" vertex="1" parent="1">
          <mxGeometry x="1660" y="430" width="100" height="40" as="geometry" />
        </mxCell>
        <mxCell id="RbLl8908BFiJwKNtAFnd-99" value="discount_%" style="ellipse;whiteSpace=wrap;html=1;align=center;" vertex="1" parent="1">
          <mxGeometry x="1750" y="360" width="90" height="40" as="geometry" />
        </mxCell>
        <mxCell id="RbLl8908BFiJwKNtAFnd-100" value="" style="endArrow=none;html=1;rounded=0;entryX=0.5;entryY=1;entryDx=0;entryDy=0;exitX=1;exitY=0;exitDx=0;exitDy=0;" edge="1" parent="1" source="RbLl8908BFiJwKNtAFnd-98" target="RbLl8908BFiJwKNtAFnd-99">
          <mxGeometry relative="1" as="geometry">
            <mxPoint x="1590" y="350" as="sourcePoint" />
            <mxPoint x="1790" y="390" as="targetPoint" />
          </mxGeometry>
        </mxCell>
        <mxCell id="RbLl8908BFiJwKNtAFnd-101" value="unit_price" style="ellipse;whiteSpace=wrap;html=1;align=center;" vertex="1" parent="1">
          <mxGeometry x="1670" y="195" width="80" height="35" as="geometry" />
        </mxCell>
        <mxCell id="RbLl8908BFiJwKNtAFnd-102" value="" style="endArrow=none;html=1;rounded=0;entryX=0.5;entryY=1;entryDx=0;entryDy=0;exitX=0.5;exitY=0;exitDx=0;exitDy=0;" edge="1" parent="1" source="RbLl8908BFiJwKNtAFnd-101" target="RbLl8908BFiJwKNtAFnd-91">
          <mxGeometry relative="1" as="geometry">
            <mxPoint x="1630" y="170" as="sourcePoint" />
            <mxPoint x="1790" y="170" as="targetPoint" />
          </mxGeometry>
        </mxCell>
        <mxCell id="RbLl8908BFiJwKNtAFnd-103" value="description" style="ellipse;whiteSpace=wrap;html=1;align=center;" vertex="1" parent="1">
          <mxGeometry x="1670" y="330" width="80" height="30" as="geometry" />
        </mxCell>
        <mxCell id="RbLl8908BFiJwKNtAFnd-104" value="" style="endArrow=none;html=1;rounded=0;entryX=0.5;entryY=0;entryDx=0;entryDy=0;exitX=0.5;exitY=1;exitDx=0;exitDy=0;" edge="1" parent="1" source="RbLl8908BFiJwKNtAFnd-103" target="RbLl8908BFiJwKNtAFnd-98">
          <mxGeometry relative="1" as="geometry">
            <mxPoint x="1620" y="260" as="sourcePoint" />
            <mxPoint x="1780" y="260" as="targetPoint" />
          </mxGeometry>
        </mxCell>
        <mxCell id="RbLl8908BFiJwKNtAFnd-105" value="Applied" style="shape=rhombus;perimeter=rhombusPerimeter;whiteSpace=wrap;html=1;align=center;" vertex="1" parent="1">
          <mxGeometry x="1510" y="410" width="60" height="60" as="geometry" />
        </mxCell>
        <mxCell id="RbLl8908BFiJwKNtAFnd-106" value="" style="endArrow=none;html=1;rounded=0;exitX=1;exitY=0.5;exitDx=0;exitDy=0;entryX=0;entryY=0;entryDx=0;entryDy=0;" edge="1" parent="1" source="RbLl8908BFiJwKNtAFnd-105" target="RbLl8908BFiJwKNtAFnd-98">
          <mxGeometry relative="1" as="geometry">
            <mxPoint x="1630" y="170" as="sourcePoint" />
            <mxPoint x="1790" y="170" as="targetPoint" />
          </mxGeometry>
        </mxCell>
        <mxCell id="RbLl8908BFiJwKNtAFnd-107" value="" style="endArrow=none;html=1;rounded=0;entryX=0;entryY=0.5;entryDx=0;entryDy=0;exitX=1;exitY=0.25;exitDx=0;exitDy=0;" edge="1" parent="1" source="RbLl8908BFiJwKNtAFnd-6" target="RbLl8908BFiJwKNtAFnd-105">
          <mxGeometry relative="1" as="geometry">
            <mxPoint x="1300" y="470" as="sourcePoint" />
            <mxPoint x="1460" y="470" as="targetPoint" />
          </mxGeometry>
        </mxCell>
        <mxCell id="RbLl8908BFiJwKNtAFnd-108" value="Made By" style="shape=rhombus;perimeter=rhombusPerimeter;whiteSpace=wrap;html=1;align=center;" vertex="1" parent="1">
          <mxGeometry x="1150" y="370" width="60" height="60" as="geometry" />
        </mxCell>
        <mxCell id="RbLl8908BFiJwKNtAFnd-109" value="Includes" style="shape=rhombus;perimeter=rhombusPerimeter;whiteSpace=wrap;html=1;align=center;" vertex="1" parent="1">
          <mxGeometry x="1150" y="490" width="60" height="60" as="geometry" />
        </mxCell>
        <mxCell id="RbLl8908BFiJwKNtAFnd-110" value="Order" style="whiteSpace=wrap;html=1;align=center;" vertex="1" parent="1">
          <mxGeometry x="1660" y="620" width="100" height="40" as="geometry" />
        </mxCell>
        <mxCell id="RbLl8908BFiJwKNtAFnd-111" value="Contains" style="shape=rhombus;perimeter=rhombusPerimeter;whiteSpace=wrap;html=1;align=center;" vertex="1" parent="1">
          <mxGeometry x="1680" y="530" width="60" height="40" as="geometry" />
        </mxCell>
        <mxCell id="RbLl8908BFiJwKNtAFnd-112" value="" style="endArrow=none;html=1;rounded=0;exitX=0.5;exitY=1;exitDx=0;exitDy=0;" edge="1" parent="1" source="RbLl8908BFiJwKNtAFnd-98" target="RbLl8908BFiJwKNtAFnd-111">
          <mxGeometry relative="1" as="geometry">
            <mxPoint x="1590" y="670" as="sourcePoint" />
            <mxPoint x="1750" y="670" as="targetPoint" />
          </mxGeometry>
        </mxCell>
        <mxCell id="RbLl8908BFiJwKNtAFnd-113" value="" style="endArrow=none;html=1;rounded=0;exitX=0.5;exitY=1;exitDx=0;exitDy=0;" edge="1" parent="1" source="RbLl8908BFiJwKNtAFnd-111" target="RbLl8908BFiJwKNtAFnd-110">
          <mxGeometry relative="1" as="geometry">
            <mxPoint x="1590" y="670" as="sourcePoint" />
            <mxPoint x="1750" y="670" as="targetPoint" />
          </mxGeometry>
        </mxCell>
        <mxCell id="RbLl8908BFiJwKNtAFnd-115" value="Payment" style="whiteSpace=wrap;html=1;align=center;" vertex="1" parent="1">
          <mxGeometry x="1660" y="920" width="100" height="40" as="geometry" />
        </mxCell>
        <mxCell id="RbLl8908BFiJwKNtAFnd-116" value="Has" style="shape=rhombus;perimeter=rhombusPerimeter;whiteSpace=wrap;html=1;align=center;" vertex="1" parent="1">
          <mxGeometry x="1675" y="730" width="70" height="60" as="geometry" />
        </mxCell>
        <mxCell id="RbLl8908BFiJwKNtAFnd-117" value="" style="endArrow=none;html=1;rounded=0;exitX=0.5;exitY=1;exitDx=0;exitDy=0;entryX=0.5;entryY=0;entryDx=0;entryDy=0;" edge="1" parent="1" source="RbLl8908BFiJwKNtAFnd-110" target="RbLl8908BFiJwKNtAFnd-116">
          <mxGeometry relative="1" as="geometry">
            <mxPoint x="1590" y="770" as="sourcePoint" />
            <mxPoint x="1750" y="770" as="targetPoint" />
          </mxGeometry>
        </mxCell>
        <mxCell id="RbLl8908BFiJwKNtAFnd-118" value="" style="endArrow=none;html=1;rounded=0;entryX=0.5;entryY=0;entryDx=0;entryDy=0;exitX=0.5;exitY=1;exitDx=0;exitDy=0;" edge="1" parent="1" source="RbLl8908BFiJwKNtAFnd-116" target="RbLl8908BFiJwKNtAFnd-115">
          <mxGeometry relative="1" as="geometry">
            <mxPoint x="1590" y="770" as="sourcePoint" />
            <mxPoint x="1750" y="770" as="targetPoint" />
          </mxGeometry>
        </mxCell>
        <mxCell id="RbLl8908BFiJwKNtAFnd-119" value="payment_id" style="ellipse;whiteSpace=wrap;html=1;align=center;fontStyle=4;" vertex="1" parent="1">
          <mxGeometry x="1540" y="890" width="70" height="40" as="geometry" />
        </mxCell>
        <mxCell id="RbLl8908BFiJwKNtAFnd-120" value="" style="endArrow=none;html=1;rounded=0;exitX=1;exitY=0.5;exitDx=0;exitDy=0;entryX=0;entryY=0;entryDx=0;entryDy=0;" edge="1" parent="1" source="RbLl8908BFiJwKNtAFnd-119" target="RbLl8908BFiJwKNtAFnd-115">
          <mxGeometry relative="1" as="geometry">
            <mxPoint x="1590" y="770" as="sourcePoint" />
            <mxPoint x="1750" y="770" as="targetPoint" />
          </mxGeometry>
        </mxCell>
        <mxCell id="RbLl8908BFiJwKNtAFnd-121" value="method" style="ellipse;whiteSpace=wrap;html=1;align=center;" vertex="1" parent="1">
          <mxGeometry x="1580" y="830" width="80" height="40" as="geometry" />
        </mxCell>
        <mxCell id="RbLl8908BFiJwKNtAFnd-122" value="" style="endArrow=none;html=1;rounded=0;entryX=0.25;entryY=0;entryDx=0;entryDy=0;exitX=0.5;exitY=1;exitDx=0;exitDy=0;" edge="1" parent="1" source="RbLl8908BFiJwKNtAFnd-121" target="RbLl8908BFiJwKNtAFnd-115">
          <mxGeometry relative="1" as="geometry">
            <mxPoint x="1590" y="770" as="sourcePoint" />
            <mxPoint x="1750" y="770" as="targetPoint" />
          </mxGeometry>
        </mxCell>
        <mxCell id="RbLl8908BFiJwKNtAFnd-123" value="amount" style="ellipse;whiteSpace=wrap;html=1;align=center;" vertex="1" parent="1">
          <mxGeometry x="1730" y="820" width="80" height="40" as="geometry" />
        </mxCell>
        <mxCell id="RbLl8908BFiJwKNtAFnd-124" value="" style="endArrow=none;html=1;rounded=0;entryX=0.5;entryY=1;entryDx=0;entryDy=0;exitX=0.75;exitY=0;exitDx=0;exitDy=0;" edge="1" parent="1" source="RbLl8908BFiJwKNtAFnd-115" target="RbLl8908BFiJwKNtAFnd-123">
          <mxGeometry relative="1" as="geometry">
            <mxPoint x="1590" y="770" as="sourcePoint" />
            <mxPoint x="1750" y="770" as="targetPoint" />
          </mxGeometry>
        </mxCell>
        <mxCell id="RbLl8908BFiJwKNtAFnd-125" value="status" style="ellipse;whiteSpace=wrap;html=1;align=center;" vertex="1" parent="1">
          <mxGeometry x="1550" y="990" width="80" height="40" as="geometry" />
        </mxCell>
        <mxCell id="RbLl8908BFiJwKNtAFnd-126" value="" style="endArrow=none;html=1;rounded=0;entryX=0;entryY=1;entryDx=0;entryDy=0;exitX=0.5;exitY=0;exitDx=0;exitDy=0;" edge="1" parent="1" source="RbLl8908BFiJwKNtAFnd-125" target="RbLl8908BFiJwKNtAFnd-115">
          <mxGeometry relative="1" as="geometry">
            <mxPoint x="1590" y="970" as="sourcePoint" />
            <mxPoint x="1750" y="970" as="targetPoint" />
          </mxGeometry>
        </mxCell>
        <mxCell id="RbLl8908BFiJwKNtAFnd-127" value="payment_date" style="ellipse;whiteSpace=wrap;html=1;align=center;" vertex="1" parent="1">
          <mxGeometry x="1680" y="1030" width="100" height="40" as="geometry" />
        </mxCell>
        <mxCell id="RbLl8908BFiJwKNtAFnd-128" value="" style="endArrow=none;html=1;rounded=0;entryX=0.41;entryY=0;entryDx=0;entryDy=0;entryPerimeter=0;exitX=0.61;exitY=1.038;exitDx=0;exitDy=0;exitPerimeter=0;" edge="1" parent="1" source="RbLl8908BFiJwKNtAFnd-115" target="RbLl8908BFiJwKNtAFnd-127">
          <mxGeometry relative="1" as="geometry">
            <mxPoint x="1590" y="970" as="sourcePoint" />
            <mxPoint x="1750" y="970" as="targetPoint" />
          </mxGeometry>
        </mxCell>
        <mxCell id="RbLl8908BFiJwKNtAFnd-129" value="Has" style="shape=rhombus;perimeter=rhombusPerimeter;whiteSpace=wrap;html=1;align=center;" vertex="1" parent="1">
          <mxGeometry x="1245" y="1100" width="60" height="40" as="geometry" />
        </mxCell>
        <mxCell id="RbLl8908BFiJwKNtAFnd-130" value="" style="endArrow=none;html=1;rounded=0;entryX=0;entryY=0.5;entryDx=0;entryDy=0;" edge="1" parent="1" target="RbLl8908BFiJwKNtAFnd-129">
          <mxGeometry relative="1" as="geometry">
            <mxPoint x="940" y="1280" as="sourcePoint" />
            <mxPoint x="1220" y="1270" as="targetPoint" />
          </mxGeometry>
        </mxCell>
        <mxCell id="RbLl8908BFiJwKNtAFnd-131" value="" style="endArrow=none;html=1;rounded=0;entryX=0.5;entryY=1;entryDx=0;entryDy=0;exitX=1;exitY=0.5;exitDx=0;exitDy=0;" edge="1" parent="1" source="RbLl8908BFiJwKNtAFnd-129" target="RbLl8908BFiJwKNtAFnd-110">
          <mxGeometry relative="1" as="geometry">
            <mxPoint x="1580" y="670" as="sourcePoint" />
            <mxPoint x="1740" y="670" as="targetPoint" />
          </mxGeometry>
        </mxCell>
        <mxCell id="RbLl8908BFiJwKNtAFnd-132" value="Places" style="shape=rhombus;perimeter=rhombusPerimeter;whiteSpace=wrap;html=1;align=center;" vertex="1" parent="1">
          <mxGeometry x="1100" y="790" width="80" height="40" as="geometry" />
        </mxCell>
        <mxCell id="RbLl8908BFiJwKNtAFnd-133" value="" style="endArrow=none;html=1;rounded=0;exitX=1;exitY=0.5;exitDx=0;exitDy=0;entryX=0;entryY=0.5;entryDx=0;entryDy=0;" edge="1" parent="1" source="RbLl8908BFiJwKNtAFnd-7" target="RbLl8908BFiJwKNtAFnd-132">
          <mxGeometry relative="1" as="geometry">
            <mxPoint x="920" y="970" as="sourcePoint" />
            <mxPoint x="1080" y="970" as="targetPoint" />
          </mxGeometry>
        </mxCell>
        <mxCell id="RbLl8908BFiJwKNtAFnd-134" value="" style="endArrow=none;html=1;rounded=0;exitX=1;exitY=0.5;exitDx=0;exitDy=0;entryX=0;entryY=0.75;entryDx=0;entryDy=0;" edge="1" parent="1" source="RbLl8908BFiJwKNtAFnd-132" target="RbLl8908BFiJwKNtAFnd-110">
          <mxGeometry relative="1" as="geometry">
            <mxPoint x="1230" y="870" as="sourcePoint" />
            <mxPoint x="1390" y="870" as="targetPoint" />
          </mxGeometry>
        </mxCell>
        <mxCell id="RbLl8908BFiJwKNtAFnd-135" value="Entity" style="whiteSpace=wrap;html=1;align=center;" vertex="1" parent="1">
          <mxGeometry x="1930" y="270" width="100" height="40" as="geometry" />
        </mxCell>
        <mxCell id="RbLl8908BFiJwKNtAFnd-136" value="category_id" style="ellipse;whiteSpace=wrap;html=1;align=center;fontStyle=4;" vertex="1" parent="1">
          <mxGeometry x="280" y="380" width="100" height="40" as="geometry" />
        </mxCell>
        <mxCell id="RbLl8908BFiJwKNtAFnd-137" value="Attribute" style="ellipse;whiteSpace=wrap;html=1;align=center;" vertex="1" parent="1">
          <mxGeometry x="470" y="330" width="100" height="40" as="geometry" />
        </mxCell>
      </root>
    </mxGraphModel>
  </diagram>
</mxfile>
